<svg width="20" height="21" viewBox="0 0 20 21" fill="none" xmlns="http://www.w3.org/2000/svg">
<mask id="path-1-inside-1_8474_54019" fill="white">
<rect y="13.1523" width="7.34697" height="7.34697" rx="1"/>
</mask>
<rect y="13.1523" width="7.34697" height="7.34697" rx="1" stroke="#F4F8FB" stroke-width="3" mask="url(#path-1-inside-1_8474_54019)"/>
<mask id="path-2-inside-2_8474_54019" fill="white">
<rect y="2.54102" width="7.34697" height="7.34697" rx="1"/>
</mask>
<rect y="2.54102" width="7.34697" height="7.34697" rx="1" stroke="#F4F8FB" stroke-width="3" mask="url(#path-2-inside-2_8474_54019)"/>
<mask id="path-3-inside-3_8474_54019" fill="white">
<rect x="10.6113" y="13.1523" width="7.34697" height="7.34697" rx="1"/>
</mask>
<rect x="10.6113" y="13.1523" width="7.34697" height="7.34697" rx="1" stroke="#F4F8FB" stroke-width="3" mask="url(#path-3-inside-3_8474_54019)"/>
<path d="M10.0773 6.25686C9.97965 6.15922 9.97965 6.00093 10.0773 5.9033L14.2428 1.73777C14.3404 1.64014 14.4987 1.64014 14.5964 1.73777L18.7619 5.9033C18.8595 6.00093 18.8595 6.15922 18.7619 6.25685L14.5964 10.4224C14.4987 10.52 14.3404 10.52 14.2428 10.4224L12.16 8.33962L10.0773 6.25686Z" stroke="#F4F8FB" stroke-width="1.5"/>
</svg>
